<?xml version="1.0" encoding="UTF-8"?>
<svg viewBox="0 0 64 64" xmlns="http://www.w3.org/2000/svg" xmlns:xlink="http://www.w3.org/1999/xlink">
<linearGradient id="z" x1="55" x2="55" y1="54" y2="9" gradientUnits="userSpaceOnUse" xlink:href="#o"/>
<linearGradient id="p">
<stop stop-color="#bf4231" offset="0"/>
<stop stop-color="#e05e4c" offset="1"/>
</linearGradient>
<linearGradient id="y" x1="32" x2="32" y1="58" y2="6" gradientUnits="userSpaceOnUse">
<stop stop-color="#173f4f" offset="0"/>
<stop stop-color="#2f5361" offset="1"/>
</linearGradient>
<linearGradient id="x" x1="55" x2="55" y1="54" y2="9" gradientUnits="userSpaceOnUse" xlink:href="#p"/>
<linearGradient id="w" x1="20" x2="45" y1="22" y2="47" gradientUnits="userSpaceOnUse" xlink:href="#n"/>
<linearGradient id="v" x1="37" x2="37" y1="46" y2="38" gradientUnits="userSpaceOnUse">
<stop stop-color="#be4434" offset="0"/>
<stop stop-color="#c44837" offset=".25"/>
<stop stop-color="#cb4c3b" offset="1"/>
</linearGradient>
<linearGradient id="u" x1="26" x2="50" y1="16" y2="40" gradientUnits="userSpaceOnUse" xlink:href="#n"/>
<linearGradient id="t" x1="40" x2="47" y1="38" y2="45" gradientUnits="userSpaceOnUse" xlink:href="#n"/>
<linearGradient id="s" x1="43" x2="46" y1="44" y2="47" gradientUnits="userSpaceOnUse" xlink:href="#n"/>
<linearGradient id="o">
<stop stop-color="#eff0f1" offset="0"/>
<stop stop-color="#fcfcfc" offset="1"/>
</linearGradient>
<linearGradient id="n">
<stop stop-color="#292c2f" offset="0"/>
<stop stop-opacity="0" offset="1"/>
</linearGradient>
<linearGradient id="r" x1="32" x2="32" y1="54" y2="9" gradientUnits="userSpaceOnUse" xlink:href="#o"/>
<linearGradient id="q" x1="32" x2="32" y1="54" y2="9" gradientUnits="userSpaceOnUse" xlink:href="#p"/>
<path d="m32 6c-6.3333 3.3545-12.667 4.7249-19 6v25.002c0 7 10.263 16.561 19 20.998 8.7367-4.4367 19-13.998 19-20.998v-25.002c-6.3333-1.2751-12.667-2.6455-19-6z" fill="url(#y)" stroke-linecap="square" stroke-width="2"/>
<path d="m13 36.002v1c0 7 10.263 16.561 19 20.998 8.7367-4.4367 19-13.998 19-20.998v-1c0 7-10.263 16.561-19 20.998-8.7367-4.4367-19-13.998-19-20.998z" fill="#292c2f" opacity=".2" stroke-linecap="square" stroke-width="2"/>
<path d="m48 14-26.305 32.305 11.209 11.209c8.5255-4.6148 18.096-13.751 18.096-20.512v-20.002z" fill="url(#s)" opacity=".2"/>
<path d="m40.824 12.35-17.617 35.238c2.7356 2.5487 5.8063 4.8954 8.793 6.4121 7.3928-3.7542 16-12.077 16-18v-22c-2.4034-0.48388-4.7894-1.007-7.1758-1.6504z" fill="url(#x)"/>
<path d="m32 9c-5.3588 2.8384-10.641 3.9211-16 5v22c0 3.53 3.1716 7.8282 7.207 11.588l17.617-35.238c-2.9346-0.79125-5.8687-1.7842-8.8242-3.3496z" fill="url(#z)"/>
<path d="m24 14-8 16 20.936 20.936c1.522-1.1076 3.0014-2.3369 4.3613-3.6387l-1.2969-1.2969-7-14z" fill="url(#w)" opacity=".2"/>
<path d="m28 14 12 32 8-16h-4z" fill="url(#u)" opacity=".2"/>
<g stroke-width="1.8571">
<path d="m24 14 16 32 8-16h-4l-1 2h-6l-9-18zm14 20h4l-2 4z" fill="url(#r)"/>
<path d="m24 14-8 16h4l1-2h6l8.5 17h4zm0 8 2 4h-4z" fill="url(#q)"/>
<path d="m32 38 4 8h4l-4-8z" fill="url(#v)"/>
</g>
<path d="m48 30-8 16 3.6172 3.6172c4.0131-3.8877 7.018-8.223 7.3516-11.938 0.019301-0.22986 0.03125-0.45678 0.03125-0.67774v-4.002z" fill="url(#t)" opacity=".2"/>
</svg>
