<?xml version="1.0" encoding="UTF-8"?>
<svg viewBox="0 -1 104 106" xmlns="http://www.w3.org/2000/svg">
<defs>
<style>.cls-1{fill:#231f20;}.cls-2{fill:#fff9ae;}.cls-3{fill:#00aeef;}.cls-4{fill:#00a94f;}.cls-5{fill:#f15d22;}.cls-6{fill:#e31b23;}</style>
</defs>
<title>Discourse_logo</title>
<g data-name="Layer 2">
<g data-name="Layer 3">
<path class="cls-1" d="M51.87,0C23.71,0,0,22.83,0,51c0,.91,0,52.81,0,52.81l51.86-.05c28.16,0,51-23.71,51-51.87S80,0,51.87,0Z"/>
<path class="cls-2" d="m52.37 19.74a31.62 31.62 0 0 0-27.79 46.67l-5.72 18.4 20.54-4.64a31.61 31.61 0 1 0 13-60.43z"/>
<path class="cls-3" d="m77.45 32.12a31.6 31.6 0 0 1-38.05 48l-20.54 4.7 20.91-2.47a31.6 31.6 0 0 0 37.68-50.23z"/>
<path class="cls-4" d="M71.63,26.29A31.6,31.6,0,0,1,38.8,78L18.86,84.82,39.4,80.17A31.6,31.6,0,0,0,71.63,26.29Z"/>
<path class="cls-5" d="m26.47 67.11a31.61 31.61 0 0 1 51-35 31.61 31.61 0 0 0-52.89 34.3l-5.72 18.4z"/>
<path class="cls-6" d="m24.58 66.41a31.61 31.61 0 0 1 47.05-40.12 31.61 31.61 0 0 0-49 39.63l-3.76 18.9z"/>
</g>
</g>
</svg>
