<?xml version="1.0" encoding="UTF-8"?>
<svg version="1.1" viewBox="0 0 563.7 85" xml:space="preserve" xmlns="http://www.w3.org/2000/svg" xmlns:cc="http://creativecommons.org/ns#" xmlns:dc="http://purl.org/dc/elements/1.1/" xmlns:rdf="http://www.w3.org/1999/02/22-rdf-syntax-ns#"><metadata><rdf:RDF><cc:Work rdf:about=""><dc:format>image/svg+xml</dc:format><dc:type rdf:resource="http://purl.org/dc/dcmitype/StillImage"/><dc:title/></cc:Work></rdf:RDF></metadata><rect class="logo-rect" width="84" height="23"/><rect class="logo-rect logo-rect--red" x="92" width="23" height="23" fill="#c70000"/><rect class="logo-rect" x="46" y="31" width="69" height="23"/><rect class="logo-rect" y="62" width="115" height="23"/><path class="logo-heading-text" d="M156.7,5h-16.8v10.5h14.3v4.7h-14.3v14.6h-5.2V0.3h22V5z"/><path class="logo-heading-text" d="M175.4,0.3c6.5,0,10.7,4.2,10.7,10.1c0,4.9-3,8.1-6.9,9.1l7.9,15.2H181l-7.3-14.5h-6.5v14.5H162V0.3H175.4z M167.2,5v10.8   h7.7c3.5,0,5.9-2,5.9-5.4S178.5,5,175,5H167.2z"/><path class="logo-heading-text" d="M214.8,5H198V15h14.3v4.7H198V30h16.8v4.7h-22V0.3h22V5z"/><path class="logo-heading-text" d="M243,5h-16.8V15h14.3v4.7h-14.3V30H243v4.7h-22V0.3h22V5z"/><path class="logo-heading-text" d="m261.3 0.3c4.3 0 7.4 1.4 9.8 4.4 2.5 3.1 2.6 7.4 2.6 12.9s-0.1 9.8-2.6 12.9c-2.4 3-5.5 4.4-9.8 4.4h-12.1v-34.6h12.1zm-6.9 4.7v25h6.3c2.5 0 4.5-0.6 5.9-2.3 1.7-1.9 1.8-5.1 1.8-10.2s-0.1-8.3-1.8-10.2c-1.4-1.7-3.4-2.3-5.9-2.3h-6.3z"/><path class="logo-heading-text" d="m300.5 3.5c3.4 3.4 3.5 6.8 3.5 14s-0.1 10.6-3.5 14c-2.2 2.2-5.1 3.5-8.9 3.5s-6.7-1.3-8.9-3.5c-3.4-3.4-3.5-6.8-3.5-14s0.1-10.6 3.5-14c2.2-2.2 5.1-3.5 8.9-3.5s6.7 1.3 8.9 3.5zm-14 3.3c-1.7 1.8-2 3.9-2 10.7s0.3 8.9 2 10.7c1.3 1.4 3 2.1 5.1 2.1s3.8-0.8 5.1-2.1c1.7-1.8 2-3.9 2-10.7s-0.3-9-2-10.7c-1.3-1.4-3-2.1-5.1-2.1s-3.8 0.7-5.1 2.1z"/><path class="logo-heading-text" d="M341.2,34.7h-5.2v-23L328,28.5h-3.9L316,11.7v23h-5.2V0.3h5.2l10.1,21.4l9.9-21.4h5.2V34.7z"/><path class="logo-heading-text logo-heading-text--gray" d="m379.9 3.5c3.4 3.4 3.5 6.8 3.5 14s-0.1 10.6-3.5 14c-2.2 2.2-5.1 3.5-8.9 3.5s-6.7-1.3-8.9-3.5c-3.4-3.4-3.5-6.8-3.5-14s0.1-10.6 3.5-14c2.2-2.2 5.1-3.5 8.9-3.5s6.7 1.3 8.9 3.5zm-14 3.3c-1.7 1.8-2 3.9-2 10.7s0.3 8.9 2 10.7c1.3 1.4 3 2.1 5.1 2.1s3.8-0.8 5.1-2.1c1.7-1.8 2-3.9 2-10.7s-0.3-9-2-10.7c-1.3-1.4-3-2.1-5.1-2.1s-3.8 0.7-5.1 2.1z" fill="#7c7c7c"/><path class="logo-heading-text logo-heading-text--gray" d="M412.2,5h-16.8v10.5h14.3v4.7h-14.3v14.6h-5.2V0.3h22V5z" fill="#7c7c7c"/><path class="logo-heading-text logo-heading-text--gray" d="M449.3,5h-9.5v29.8h-5.2V5h-9.5V0.3h24.2V5z" fill="#7c7c7c"/><path class="logo-heading-text logo-heading-text--gray" d="M478.8,34.7h-5.2v-15h-14v15h-5.2V0.3h5.2V15h14V0.3h5.2V34.7z" fill="#7c7c7c"/><path class="logo-heading-text logo-heading-text--gray" d="M508.8,5h-16.8V15h14.3v4.7h-14.3V30h16.8v4.7h-22V0.3h22V5z" fill="#7c7c7c"/><path class="logo-heading-text" d="m147.7 50.1c6.7 0 11 4.5 11 10.5s-4.3 10.4-11 10.4h-7.8v13.6h-5.2v-34.5h13zm-7.8 4.7v11.5h7.5c3.7 0 6.1-2.1 6.1-5.7 0-3.7-2.4-5.8-6.1-5.8h-7.5z"/><path class="logo-heading-text" d="m177.5 50.1c6.5 0 10.7 4.2 10.7 10.1 0 4.9-3 8.1-6.9 9.1l7.9 15.2h-6.1l-7.2-14.5h-6.5v14.5h-5.2v-34.4h13.3zm-8.1 4.7v10.8h7.7c3.5 0 5.9-2 5.9-5.4s-2.4-5.4-5.9-5.4h-7.7z"/><path class="logo-heading-text" d="m216.9 54.8h-16.8v10.1h14.3v4.7h-14.3v10.3h16.8v4.7h-22v-34.5h22v4.7z"/><path class="logo-heading-text" d="m243.4 53.7-3.3 3.3c-2.1-2-4.6-2.7-7.6-2.7-4.1 0-6.2 2.2-6.2 5.4 0 1.3 0.3 2.4 1.3 3.2 0.9 0.8 1.9 1.3 3.8 1.5l4.1 0.6c3.1 0.5 4.9 1.2 6.4 2.6 1.8 1.7 2.8 4.1 2.8 7.1 0 6.3-5.1 10.1-12.4 10.1-5.2 0-8.9-1.2-12.2-4.5l3.4-3.4c2.5 2.5 5.4 3.3 8.9 3.3 4.5 0 7.1-1.9 7.1-5.3 0-1.5-0.4-2.8-1.4-3.6-0.9-0.8-2-1.2-3.8-1.5l-4.1-0.6c-2.8-0.4-5-1.3-6.5-2.8-1.7-1.5-2.6-3.8-2.6-6.6 0-6 4.4-10.1 11.5-10.1 4.7 0.1 7.9 1.3 10.8 4z"/><path class="logo-heading-text" d="m270.8 53.7-3.3 3.3c-2.1-2-4.6-2.7-7.6-2.7-4.1 0-6.2 2.2-6.2 5.4 0 1.3 0.3 2.4 1.3 3.2 0.9 0.8 1.9 1.3 3.8 1.5l4.1 0.6c3.1 0.5 4.9 1.2 6.4 2.6 1.8 1.7 2.8 4.1 2.8 7.1 0 6.3-5.1 10.1-12.4 10.1-5.2 0-8.9-1.2-12.2-4.5l3.4-3.4c2.5 2.5 5.4 3.3 8.9 3.3 4.5 0 7.1-1.9 7.1-5.3 0-1.5-0.4-2.8-1.4-3.6-0.9-0.8-2-1.2-3.8-1.5l-4.1-0.6c-2.8-0.4-5-1.3-6.5-2.8-1.7-1.5-2.6-3.8-2.6-6.6 0-6 4.4-10.1 11.5-10.1 4.7 0.1 7.8 1.3 10.8 4z"/><path class="logo-heading-text" d="M310.7,54.8h-16.8v10.5h14.3V70h-14.3v14.6h-5.2V50.1h22V54.8z"/><path class="logo-heading-text" d="m335.1 53.3c3.4 3.4 3.5 6.8 3.5 14s-0.1 10.6-3.5 14c-2.2 2.2-5.1 3.5-8.9 3.5s-6.7-1.3-8.9-3.5c-3.4-3.4-3.5-6.8-3.5-14s0.1-10.6 3.5-14c2.2-2.2 5.1-3.5 8.9-3.5s6.7 1.3 8.9 3.5zm-14 3.3c-1.7 1.8-2 3.9-2 10.7s0.3 8.9 2 10.7c1.3 1.4 3 2.1 5.1 2.1s3.8-0.8 5.1-2.1c1.7-1.8 2-3.9 2-10.7s-0.3-9-2-10.7c-1.3-1.4-3-2.1-5.1-2.1s-3.8 0.7-5.1 2.1z"/><path class="logo-heading-text" d="m369.6 72.9c0 7.1-5.4 11.9-12.4 11.9s-12.3-4.8-12.3-11.9v-22.8h5.2v22.6c0 4.6 2.8 7.5 7.1 7.5s7.2-2.9 7.2-7.5v-22.6h5.2v22.8z"/><path class="logo-heading-text" d="M403.1,84.5h-4.8l-15.9-24.2v24.2h-5.2V50.1h4.8l15.9,24.2V50.1h5.2V84.5z"/><path class="logo-heading-text" d="m423.2 50.1c4.3 0 7.4 1.4 9.8 4.4 2.5 3.1 2.6 7.4 2.6 12.9s-0.1 9.8-2.6 12.9c-2.4 3-5.5 4.4-9.8 4.4h-12.1v-34.6h12.1zm-6.9 4.7v25.1h6.3c2.5 0 4.5-0.6 5.9-2.3 1.7-1.9 1.8-5.1 1.8-10.2s-0.1-8.3-1.8-10.2c-1.4-1.7-3.4-2.3-5.9-2.3h-6.3z"/><path class="logo-heading-text" d="m467.3 84.5h-5.6l-2.4-6.9h-13.6l-2.4 6.9h-5.6l12.6-34.5h4.2l12.8 34.5zm-20.1-11.3h10.6l-5.3-15.3-5.3 15.3z"/><path class="logo-heading-text" d="M489.2,54.8h-9.5v29.8h-5.2V54.8H465v-4.7h24.2V54.8z"/><path class="logo-heading-text" d="M499.4,84.5h-5.2V50.1h5.2V84.5z"/><path class="logo-heading-text" d="m527.5 53.3c3.4 3.4 3.5 6.8 3.5 14s-0.1 10.6-3.5 14c-2.2 2.2-5.1 3.5-8.9 3.5s-6.7-1.3-8.9-3.5c-3.4-3.4-3.5-6.8-3.5-14s0.1-10.6 3.5-14c2.2-2.2 5.1-3.5 8.9-3.5s6.7 1.3 8.9 3.5zm-14.1 3.3c-1.7 1.8-2 3.9-2 10.7s0.3 8.9 2 10.7c1.3 1.4 3 2.1 5.1 2.1s3.8-0.8 5.1-2.1c1.7-1.8 2-3.9 2-10.7s-0.3-9-2-10.7c-1.3-1.4-3-2.1-5.1-2.1-2 0-3.7 0.7-5.1 2.1z"/><path class="logo-heading-text" d="M563.7,84.5h-4.8L543,60.3v24.2h-5.2V50.1h4.8l15.9,24.2V50.1h5.2V84.5z"/></svg>
