<?xml version="1.0" encoding="UTF-8"?>
<svg width="409.6pt" height="409.6pt" version="1.1" viewBox="0 0 409.6 409.6" xmlns="http://www.w3.org/2000/svg">
<path d="m409.6 204.8c0 113.11-91.695 204.8-204.8 204.8-113.11 0-204.8-91.695-204.8-204.8 0-113.11 91.691-204.8 204.8-204.8 113.11 0 204.8 91.691 204.8 204.8z" fill="#606060"/>
<path d="m256.65 66.801c-18.973 13.668-35.5 29.176-45.902 49.777l7.3477-29.176c-10.992 19.586-18.535 39.844-20.945 59.648l-14.75-9.8711-2.6484 2.0391c13.262 23.863 6.3281 36.512-0.19922 41-13.262 9.1836-32.645 20.602-42.23 30.598-18.566 18.973-23.875 37.129-22.242 60.996 1.8359 30.598 24.074 56.094 53.855 66.09 13.055 4.2852 25.09 4.8984 38.555 4.8984 21.625 0 43.859-5.7109 59.973-19.172 17.137-14.281 27.34-35.703 27.34-57.934 0-22.441-9.3867-43.66-25.91-58.758-8.7695-7.9531-19.793-14.477-31.215-20.801-5.1016-2.8555-20.809-15.094-15.504-32.633l-11.359-1.5547c15.762-24.676 36.27-49.203 61.949-72.094-19.789 6.7305-37.324 16.934-50.379 35.293 7.75-16.113 20.395-32.234 34.266-48.348zm-71.191 76.695 11.551 4.7656v0.019531l5.0781 2.2109h-0.11328v112.46c-2.2539 6.7422-4.1914 7.8359-9.5703 14.172-6.3203 7.3438-7.375 18.156-7.375 26.926 0 3.6758 1.4688 7.7539 2.8984 11.625 1.6328 4.082 3.0273 8.1484 5.2695 11.207 2.8906 4.2539 6.4805 6.9297 8.7773 7.9375v0.52344c-7.8477-1.6719-16.832-4.457-22.215-9.0703-10.809-9.3828-20.383-25.074-21.609-38.742-1.0195-11.219 9.3672-27.762 23.852-36.125 12.238-7.1406 15.082-15.273 17.73-28.328-3.6719 11.422-7.1211 21-18.953 27.117-17.133 8.9766-25.922 24.035-25.105 38.316 1.2227 18.359 8.5781 30.793 23.059 40.793 4.1992 2.9375 10.898 6 17 8.0234-22.254-5.1523-24.457-7.5508-30.875-15.133 0-0.40625-1.6289-1.4297-1.6289-1.8398-8.1602-9.3828-18.566-25.297-22.238-39.98-1.2266-5.1016-2.4492-10.605-1.0195-15.703 6.7305-24.074 21.418-33.457 36.102-43.453 3.6719-2.4453 7.1406-4.8984 10.605-7.3477 8.1602-6.3242 10.211-23.25 12.047-32.633-3.4688 11.625-6.9414 25.906-13.266 30.594-3.2617 2.6523-7.3359 4.6953-10.805 6.9375-15.301 10.402-30.398 20.195-37.332 45.082-1.6328 6.3242-0.41016 11.012 1.0195 17.133 3.8711 15.297 14.281 31.617 22.848 41.41 0 0 1.4219 1.4258 1.4219 1.6289 3.8867 4.4883 8.8984 7.6602 14.789 10.207-5.125-1.4219-10.078-3.2266-14.781-5.5078-23.863-11.629-39.781-36.516-40.801-56.914-2.2461-41.41 17.754-53.445 36.113-68.543 10.402-8.5664 24.672-12.652 33.035-27.746 1.6328-3.2617 2.457-10.605 0.62109-18.152-0.81641-2.6523-4.6992-11.832-6.1289-13.875zm17.344 7.3086 5.6133 2.4414c0.070313 2.5508 0.066407 5.0469 0.046876 7.4805-0.019532-0.83984-0.023438-1.6953 0-2.5664-0.60547 10.902-0.77344 14.926 1.2656 22.879 2.2461 8.7734 13.672 21.414 18.363 35.895 8.9766 27.742 6.7383 64.059 0.21094 92.41-1.1523 4.6953-4.3359 10.375-8.5859 15.57 1.4961-2.7383 2.7891-5.7188 3.6875-8.8438 6.5273-22.844 9.1758-33.449 6.1172-58.742-0.41016-2.4492-1.4336-10.816-5.3086-19.793-5.7109-13.668-13.863-26.715-14.883-29.367-1.8359-4.2812-4.2891-22.848-4.6992-35.492 0.20703 10.605 1.0234 30.391 3.8789 38.141 0.81641 2.6523 8.3633 14.285 13.664 28.359 3.6719 9.793 4.4844 18.77 5.0977 21.418 2.4492 11.629-0.60547 31.207-4.6875 49.77-1.6797 8.2305-6.6836 18.109-12.836 24.078-0.074219 0.058594-0.15234 0.11719-0.22656 0.17188 3.8242-3.8711 7.5508-10.348 9.8125-18.141 3.0625-10.812 4.2773-24.645 4.0703-33.418-0.20703-5.0977-2.457-16.141-6.5391-26.137-2.2422-5.5078-5.6914-11.02-7.9375-14.895-2.4453-3.8789-2.4609-12.238-3.6875-22.031 0.20703 10.609-0.82812 15.93 1.8203 23.48 1.6328 4.4883 7.1445 10.605 8.7773 16.523 2.2422 7.957 4.6836 16.727 4.4766 22.031 0 6.1211-0.37891 17.547-3.0273 29.785-1.9844 9.9297-6.5156 18.469-14.094 23.43-0.12891 0.085937-0.25781 0.17578-0.39062 0.25781v-0.37109c0.066407 0.019532 0.13672 0.050782 0.19922 0.066406h0.046875c0.046875 0.011719 0.10156 0.039063 0.14453 0.046876v-0.23828c3.957-4.4102 6.3359-8.793 7.1367-13.207 1.0195-5.3008 1.2539-10.617 1.8672-16.941 0.61328-5.3047 0.17188-12.449-1.2578-19.789-2.0391-9.1797-5.4805-18.547-6.9062-25.07 0.20312 7.1406 3.0625 16.285 4.2852 25.668 1.0234 6.9375 0.58594 13.91 0.38281 20.031-0.20312 7.0859-2.5664 19.773-5.793 25.945-0.039062-0.015625-0.070312-0.03125-0.10547-0.046875zm-0.82812 112.77v67.598c-2.375-1.2891-3.5117-2.8047-5.2695-5.0898-2.4492-3.4688-4.1133-6.9336-5.7461-11.016-1.2227-3.0586-2.6562-6.5547-3.2695-10.633-0.81641-6.1211-0.58984-15.699 6.3477-25.488 4.8867-7.1445 6.3086-8.2227 7.9375-15.371z" fill="#fff"/>
</svg>
