<?xml version="1.0" encoding="UTF-8"?>
<svg enable-background="new 0 0 515.91 728.5" version="1.1" viewBox="0 0 512 512" xml:space="preserve" xmlns="http://www.w3.org/2000/svg"><g transform="translate(-402.72 -200.33)"><path transform="matrix(.69373 0 0 .69373 1423.7 406.2)" d="m-733.62 72.268c0 203.8-165.22 369.02-369.02 369.02-203.8 0-369.02-165.22-369.02-369.02 0-203.8 165.22-369.02 369.02-369.02 203.8 0 369.02 165.22 369.02 369.02z" fill="#7d4698"/><path d="m723.53 283.83c-23.715 17.085-44.371 36.471-57.375 62.223l9.1833-36.471c-13.741 24.484-23.168 49.806-26.18 74.563l-18.438-12.34-3.3113 2.5489c16.576 29.832 7.9107 45.642-0.2501 51.253-16.576 11.475-40.807 25.752-52.789 38.246-23.206 23.713-29.841 46.408-27.8 76.242 2.2946 38.25 30.094 70.12 67.321 82.614 16.318 5.3566 31.362 6.1222 48.192 6.1222 27.029 0 54.824-7.1353 74.967-23.965 21.419-17.849 34.172-44.626 34.172-72.418 0-28.048-11.731-54.574-32.386-73.443-10.965-9.9438-24.741-18.096-39.02-26.002-6.3742-3.5717-26.009-18.867-19.379-40.795l-14.198-1.9415c19.702-30.845 45.335-61.504 77.433-90.118-24.733 8.4147-46.653 21.168-62.973 44.118 9.6899-20.144 25.492-40.293 42.832-60.436zm-88.987 95.871 14.436 5.9555c0 0.01 9e-4 0.016 0 0.024l6.3486 2.7633h-0.143v140.58c-2.8144 8.4267-5.2362 9.7924-11.958 17.712-7.9032 9.1803-9.2191 22.697-9.2191 33.66 0 4.5911 1.8342 9.6883 3.6209 14.531 2.0388 5.1008 3.7824 10.184 6.5868 14.007 3.6154 5.3173 8.1007 8.6595 10.97 9.9217v0.6552c-9.8068-2.0917-21.04-5.5748-27.764-11.339-13.514-11.729-25.483-31.345-27.014-48.43-1.2733-14.023 11.71-34.701 29.813-45.154 15.298-8.9244 18.852-19.091 22.166-35.411-4.5892 14.279-8.9021 26.249-23.691 33.899-21.419 11.219-32.405 30.045-31.385 47.894 1.5291 22.948 10.722 38.494 28.824 50.991 5.2508 3.6756 13.623 7.5003 21.249 10.029-27.816-6.4371-30.573-9.4369-38.592-18.914 0-0.5097-2.0367-1.7892-2.0367-2.2988-10.2-11.731-23.211-31.62-27.8-49.978-1.531-6.374-3.0594-13.253-1.2745-19.629 8.4128-30.089 26.772-41.818 45.13-54.314 4.5892-3.0583 8.9216-6.1253 13.257-9.1834 10.2-7.9051 12.761-29.064 15.055-40.795-4.3371 14.533-8.6768 32.383-16.58 38.246-4.0795 3.314-9.1717 5.8668-13.507 8.6712-19.124 13.004-37.998 25.244-46.667 56.351-2.0388 7.9069-0.5104 13.765 1.2744 21.416 4.8431 19.124 17.853 39.525 28.562 51.765 0 0 1.7747 1.7828 1.7747 2.0368 4.8596 5.6076 11.124 9.5747 18.486 12.757-6.4048-1.7769-12.594-4.0332-18.474-6.8845-29.832-14.535-49.727-45.646-51.003-71.144-2.8043-51.762 22.193-66.807 45.142-85.675 13.004-10.709 30.842-15.814 41.295-34.685 2.0407-4.0776 3.0688-13.256 0.7742-22.69-1.0213-3.314-5.8738-14.792-7.6587-17.342zm21.678 9.1357 7.0155 3.0492c0.088 3.1904 0.087 6.3118 0.06 9.3501-0.022-1.0459-0.027-2.1178 0-3.204-0.7564 13.626-0.9643 18.654 1.5842 28.598 2.8043 10.965 17.088 26.764 22.952 44.868 11.219 34.678 8.4229 80.07 0.2621 115.51-1.4364 5.8676-5.4205 12.968-10.732 19.462 1.8712-3.4233 3.4855-7.149 4.6094-11.053 8.1609-28.558 11.471-41.813 7.647-73.431-0.5098-3.062-1.7895-13.518-6.6345-24.739-7.1396-17.085-17.332-33.394-18.605-36.709-2.2964-5.3529-5.3623-28.56-5.872-44.368 0.25581 13.258 1.2779 37.991 4.8477 47.679 1.0194 3.314 10.452 17.854 17.08 35.447 4.5911 12.24 5.6068 23.462 6.3723 26.776 3.0601 14.535-0.7594 39.007-5.8602 62.211-2.0981 10.286-8.3526 22.636-16.044 30.099-0.096 0.07-0.1895 0.1454-0.2859 0.2143 4.7805-4.8389 9.4405-12.937 12.268-22.678 3.8256-13.514 5.3437-30.806 5.0859-41.772-0.2557-6.3742-3.0701-20.178-8.1708-32.672-2.8043-6.8838-7.1156-13.772-9.9218-18.617-3.0563-4.8487-3.0785-15.3-4.6095-27.538 0.2558 13.26-1.039 19.912 2.275 29.348 2.0387 5.6085 8.9292 13.258 10.97 20.654 2.8044 9.9457 5.8558 20.908 5.5982 27.538 0 7.6512-0.4737 21.933-3.7877 37.234-2.4815 12.413-8.1409 23.085-17.616 29.289-0.1628 0.1065-0.3234 0.2177-0.4883 0.3216v-0.4645c0.084 0.025 0.171 0.064 0.2501 0.084h0.06c0.057 0.013 0.1249 0.049 0.1786 0.059v-0.2978c4.9474-5.5159 7.9191-10.993 8.9213-16.509 1.2753-6.6298 1.5691-13.272 2.3345-21.178 0.7637-6.6299 0.2127-15.561-1.5722-24.739-2.5485-11.475-6.8505-23.181-8.6354-31.338 0.2539 8.9245 3.8308 20.358 5.3599 32.088 1.277 8.6705 0.7323 17.386 0.4765 25.037-0.2521 8.8557-3.2095 24.717-7.2419 32.433-0.046-0.021-0.086-0.039-0.131-0.06v-225.99zm-1.0363 140.97v84.496c-2.9668-1.6106-4.3877-3.503-6.5867-6.3604-3.0583-4.3353-5.1416-8.6701-7.1823-13.769-1.5291-3.8256-3.3181-8.1937-4.0855-13.293-1.0194-7.6492-0.7359-19.621 7.9328-31.862 6.1097-8.9298 7.8859-10.279 9.9217-19.212z" fill="#fff"/></g></svg>
