<?xml version="1.0" encoding="UTF-8"?>
<svg xmlns="http://www.w3.org/2000/svg" xmlns:xlink="http://www.w3.org/1999/xlink" width="409.600006pt" height="409.600006pt" viewBox="0 0 409.600006 409.600006" version="1.1">
<g id="surface1">
<path style=" stroke:none;fill-rule:nonzero;fill:rgb(38%,38%,38%);fill-opacity:1;" d="M 409.601562 204.800781 C 409.601562 317.90625 317.90625 409.601562 204.800781 409.601562 C 91.691406 409.601562 0 317.90625 0 204.800781 C 0 91.691406 91.691406 0 204.800781 0 C 317.90625 0 409.601562 91.691406 409.601562 204.800781 Z M 409.601562 204.800781 "/>
<path style=" stroke:none;fill-rule:nonzero;fill:rgb(100%,100%,100%);fill-opacity:1;" d="M 256.648438 66.800781 C 237.675781 80.46875 221.148438 95.976562 210.746094 116.578125 L 218.09375 87.402344 C 207.101562 106.988281 199.558594 127.246094 197.148438 147.050781 L 182.398438 137.179688 L 179.75 139.21875 C 193.011719 163.082031 186.078125 175.730469 179.550781 180.21875 C 166.289062 189.402344 146.90625 200.820312 137.320312 210.816406 C 118.753906 229.789062 113.445312 247.945312 115.078125 271.8125 C 116.914062 302.410156 139.152344 327.90625 168.933594 337.902344 C 181.988281 342.1875 194.023438 342.800781 207.488281 342.800781 C 229.113281 342.800781 251.347656 337.089844 267.460938 323.628906 C 284.597656 309.347656 294.800781 287.925781 294.800781 265.695312 C 294.800781 243.253906 285.414062 222.035156 268.890625 206.9375 C 260.121094 198.984375 249.097656 192.460938 237.675781 186.136719 C 232.574219 183.28125 216.867188 171.042969 222.171875 153.503906 L 210.8125 151.949219 C 226.574219 127.273438 247.082031 102.746094 272.761719 79.855469 C 252.972656 86.585938 235.4375 96.789062 222.382812 115.148438 C 230.132812 99.035156 242.777344 82.914062 256.648438 66.800781 Z M 185.457031 143.496094 L 197.007812 148.261719 C 197.007812 148.269531 197.007812 148.273438 197.007812 148.28125 L 202.085938 150.492188 L 201.972656 150.492188 L 201.972656 262.957031 C 199.71875 269.699219 197.78125 270.792969 192.402344 277.128906 C 186.082031 284.472656 185.027344 295.285156 185.027344 304.054688 C 185.027344 307.730469 186.496094 311.808594 187.925781 315.679688 C 189.558594 319.761719 190.953125 323.828125 193.195312 326.886719 C 196.085938 331.140625 199.675781 333.816406 201.972656 334.824219 L 201.972656 335.347656 C 194.125 333.675781 185.140625 330.890625 179.757812 326.277344 C 168.949219 316.894531 159.375 301.203125 158.148438 287.535156 C 157.128906 276.316406 167.515625 259.773438 182 251.410156 C 194.238281 244.269531 197.082031 236.136719 199.730469 223.082031 C 196.058594 234.503906 192.609375 244.082031 180.777344 250.199219 C 163.644531 259.175781 154.855469 274.234375 155.671875 288.515625 C 156.894531 306.875 164.25 319.308594 178.730469 329.308594 C 182.929688 332.246094 189.628906 335.308594 195.730469 337.332031 C 173.476562 332.179688 171.273438 329.78125 164.855469 322.199219 C 164.855469 321.792969 163.226562 320.769531 163.226562 320.359375 C 155.066406 310.976562 144.660156 295.0625 140.988281 280.378906 C 139.761719 275.277344 138.539062 269.773438 139.96875 264.675781 C 146.699219 240.601562 161.386719 231.21875 176.070312 221.222656 C 179.742188 218.777344 183.210938 216.324219 186.675781 213.875 C 194.835938 207.550781 196.886719 190.625 198.722656 181.242188 C 195.253906 192.867188 191.78125 207.148438 185.457031 211.835938 C 182.195312 214.488281 178.121094 216.53125 174.652344 218.773438 C 159.351562 229.175781 144.253906 238.96875 137.320312 263.855469 C 135.6875 270.179688 136.910156 274.867188 138.339844 280.988281 C 142.210938 296.285156 152.621094 312.605469 161.1875 322.398438 C 161.1875 322.398438 162.609375 323.824219 162.609375 324.027344 C 166.496094 328.515625 171.507812 331.6875 177.398438 334.234375 C 172.273438 332.8125 167.320312 331.007812 162.617188 328.726562 C 138.753906 317.097656 122.835938 292.210938 121.816406 271.8125 C 119.570312 230.402344 139.570312 218.367188 157.929688 203.269531 C 168.332031 194.703125 182.601562 190.617188 190.964844 175.523438 C 192.597656 172.261719 193.421875 164.917969 191.585938 157.371094 C 190.769531 154.71875 186.886719 145.539062 185.457031 143.496094 Z M 202.800781 150.804688 L 208.414062 153.246094 C 208.484375 155.796875 208.480469 158.292969 208.460938 160.726562 C 208.441406 159.886719 208.4375 159.03125 208.460938 158.160156 C 207.855469 169.0625 207.6875 173.085938 209.726562 181.039062 C 211.972656 189.8125 223.398438 202.453125 228.089844 216.933594 C 237.066406 244.675781 234.828125 280.992188 228.300781 309.34375 C 227.148438 314.039062 223.964844 319.71875 219.714844 324.914062 C 221.210938 322.175781 222.503906 319.195312 223.402344 316.070312 C 229.929688 293.226562 232.578125 282.621094 229.519531 257.328125 C 229.109375 254.878906 228.085938 246.511719 224.210938 237.535156 C 218.5 223.867188 210.347656 210.820312 209.328125 208.167969 C 207.492188 203.886719 205.039062 185.320312 204.628906 172.675781 C 204.835938 183.28125 205.652344 203.066406 208.507812 210.816406 C 209.324219 213.46875 216.871094 225.101562 222.171875 239.175781 C 225.84375 248.96875 226.65625 257.945312 227.269531 260.59375 C 229.71875 272.222656 226.664062 291.800781 222.582031 310.363281 C 220.902344 318.59375 215.898438 328.472656 209.746094 334.441406 C 209.671875 334.5 209.59375 334.558594 209.519531 334.613281 C 213.34375 330.742188 217.070312 324.265625 219.332031 316.472656 C 222.394531 305.660156 223.609375 291.828125 223.402344 283.054688 C 223.195312 277.957031 220.945312 266.914062 216.863281 256.917969 C 214.621094 251.410156 211.171875 245.898438 208.925781 242.023438 C 206.480469 238.144531 206.464844 229.785156 205.238281 219.992188 C 205.445312 230.601562 204.410156 235.921875 207.058594 243.472656 C 208.691406 247.960938 214.203125 254.078125 215.835938 259.996094 C 218.078125 267.953125 220.519531 276.722656 220.3125 282.027344 C 220.3125 288.148438 219.933594 299.574219 217.285156 311.8125 C 215.300781 321.742188 210.769531 330.28125 203.191406 335.242188 C 203.0625 335.328125 202.933594 335.417969 202.800781 335.5 L 202.800781 335.128906 C 202.867188 335.148438 202.9375 335.179688 203 335.195312 L 203.046875 335.195312 C 203.09375 335.207031 203.148438 335.234375 203.191406 335.242188 L 203.191406 335.003906 C 207.148438 330.59375 209.527344 326.210938 210.328125 321.796875 C 211.347656 316.496094 211.582031 311.179688 212.195312 304.855469 C 212.808594 299.550781 212.367188 292.40625 210.9375 285.066406 C 208.898438 275.886719 205.457031 266.519531 204.03125 259.996094 C 204.234375 267.136719 207.09375 276.28125 208.316406 285.664062 C 209.339844 292.601562 208.902344 299.574219 208.699219 305.695312 C 208.496094 312.78125 206.132812 325.46875 202.90625 331.640625 C 202.867188 331.625 202.835938 331.609375 202.800781 331.59375 Z M 201.972656 263.578125 L 201.972656 331.175781 C 199.597656 329.886719 198.460938 328.371094 196.703125 326.085938 C 194.253906 322.617188 192.589844 319.152344 190.957031 315.070312 C 189.734375 312.011719 188.300781 308.515625 187.6875 304.4375 C 186.871094 298.316406 187.097656 288.738281 194.035156 278.949219 C 198.921875 271.804688 200.34375 270.726562 201.972656 263.578125 Z M 201.972656 263.578125 "/>
</g>
</svg>
