<?xml version="1.0" encoding="UTF-8"?>
<!DOCTYPE svg PUBLIC '-//W3C//DTD SVG 1.1//EN' 'http://www.w3.org/Graphics/SVG/1.1/DTD/svg11.dtd'>
<svg xmlns:xlink="http://www.w3.org/1999/xlink" viewBox="0 0 140.01 48.86" xmlns="http://www.w3.org/2000/svg">
 <path d="m51.75 30.45c1.25 0 2.26 1.43 2.26 3.21l-4.61.56c.13-2.44.89-3.77 2.34-3.77m-10.94-21.86c1.25 0 2.27 1.42 2.27 3.21l-4.61.56c.13-2.44.89-3.77 2.34-3.77m51.99 21.86c1.25 0 2.26 1.43 2.26 3.21l-4.61.56c.13-2.44.89-3.77 2.34-3.77m35.52 16.01h11.71v-2.19h-11.71zm-21.65-14.78c.28-.1.61-.18 1.27-.18 2.54 0 4.28 1.68 4.28 5.42 0 3.1-1.71 5.22-4.17 5.22-.41 0-.89-.08-1.37-.23v-10.23zm-37.99 1.53h3.18v-4.1c-.61-.25-1.02-.36-1.6-.36-.99 0-2.19.66-3.44 1.65l-.92.71v-2.37h-.66l-6.29 1.27v.97l2.11.64v10l-2.11.76v.87h9.31v-.87l-2.37-.76v-9.39c.61-.23 1.68-.41 1.93-.41l.84 1.37zm11.83-4.45c-4 0-8.37 2.49-8.37 8.07 0 4.63 3.08 6.82 6.41 6.82 1.15 0 2.47-.15 4.4-.97l2.34-.99-.33-.92c-.59.23-1.4.38-2.55.38-3.16 0-5.55-1.88-5.55-6.13 0-2.95 1.71-4.56 3.26-4.56.15 0 .33.03.48.1l1.4 2.65h2.93v-3.61c-1.17-.43-2.77-.84-4.43-.84m43.31-2.26h-1.17l-5.52 3.18v1.07l1.86.18v10.08c0 1.81 1.43 2.65 3.44 2.65.94 0 2.7-.31 3.87-.66l2.04-.64-.18-.94c-.33.08-.92.1-1.25.1-1.86 0-3.08-.69-3.08-2.98v-7.46l4.35.23v-2.16h-4.35v-2.65zm-83.66 0h-1.17l-5.52 3.18v1.07l1.86.18v10.08c0 1.81 1.43 2.65 3.44 2.65.94 0 2.7-.31 3.87-.66l2.04-.64-.18-.94c-.33.08-.92.1-1.25.1-1.86 0-3.08-.69-3.08-2.98v-7.46l4.35.23v-2.16h-4.35v-2.65zm18.5 8.8v-.41c0-2.19-1.48-6.13-6.44-6.13-3.77 0-7.56 2.49-7.56 8.07 0 4.56 3.33 6.82 6.97 6.82 1.07 0 2.62-.18 4.43-.97l2.26-.99-.33-.92c-.59.23-1.4.38-2.6.38-2.8 0-5.88-1.63-6.01-5.85h9.26zm41.04 0v-.41c0-2.19-1.48-6.13-6.44-6.13-3.77 0-7.56 2.49-7.56 8.07 0 4.56 3.33 6.82 6.97 6.82 1.07 0 2.62-.18 4.43-.97l2.27-.99-.33-.92c-.59.23-1.4.38-2.6.38-2.8 0-5.88-1.63-6.01-5.85h9.26zm-51.99-21.86v-.41c0-2.19-1.48-6.13-6.44-6.13-3.77 0-7.56 2.49-7.56 8.07 0 4.56 3.33 6.82 6.97 6.82 1.07 0 2.62-.18 4.43-.97l2.27-.99-.33-.92c-.59.23-1.4.38-2.6.38-2.8 0-5.88-1.63-6.01-5.85h9.26zm-41.25 12.16v15.73l-2.47.94v.99h10.87v-.99l-2.47-.94v-15.73l2.47-.94v-.99h-10.87v.99zm25.34 16.03v-7.89c0-2.93-1.09-4.99-4.05-4.99-1.22 0-2.14.38-3.33.92l-2.16.94v-1.86h-.66l-6.29 1.27v.97l2.11.64v10l-2.11.76v.87h8.8v-.87l-1.86-.76v-9.92c.46-.13 1.25-.2 1.83-.2 1.58 0 2.88.87 2.88 3.46v6.67l-1.86.76v.87h8.8v-.87l-2.11-.76zm74.86-12.88h-.66l-6.29 1.27v.97l2.11.64v15.6l-2.11.76v.87h9.57v-.87l-2.62-.76v-3.59h.99c5.95 0 9.29-3.61 9.29-8.63 0-4.3-3-6.26-5.24-6.26-.89 0-2.44.54-3.87 1.25l-.97.48h-.2zm-75.11-8.98v-7.89c0-2.93-1.09-4.99-4.05-4.99-1.22 0-2.14.38-3.33.92l-2.16.94v-8.75h-.66l-4.91 1.81h-16.41v4.91h2.32l.94-3.03h3.18v15.78l-2.47.94v.99h10.61v-.99l-2.21-.94v-15.78h4.78v16.08l-1.86.76v.87h8.55v-.87l-1.86-.76v-9.9c.46-.13 1.25-.23 1.83-.23 1.58 0 2.88.87 2.88 3.46v6.67l-1.86.76v.87h8.8v-.87z"/>
</svg>
