<?xml version="1.0" encoding="UTF-8"?>
<!DOCTYPE svg  PUBLIC '-//W3C//DTD SVG 1.1//EN'  'http://www.w3.org/Graphics/SVG/1.1/DTD/svg11.dtd'>
<svg enable-background="new 0 0 321 321" version="1.1" viewBox="0 0 321 321" xml:space="preserve" xmlns="http://www.w3.org/2000/svg">
<rect x="-.137" y=".5" width="321" height="321" fill="#36393D"/>

	
		
			
				
					<path d="m163.86 34.5h-4.67c-30.923 0-57.329 24.163-57.329 55.091v74.661c0 30.927 26.406 55.248 57.329 55.248h4.67c30.923 0 56.001-24.321 56.001-55.248v-74.661c0-30.928-25.078-55.091-56.001-55.091zm31.001 102.39c0 19.035-15.438 35.607-34.478 35.607h-1.562c-19.04 0-33.96-16.572-33.96-35.607v-48.268c0-19.039 14.92-34.125 33.96-34.125h1.562c19.04 0 34.478 15.085 34.478 34.125v48.268z" fill="#C3C3D1"/>
				
			
		
	
	
		
			
				
					<circle cx="160.86" cy="195.34" r="91.201" fill="#C3C3D1"/>
				
				
					
						<path d="m196.3 169.24-0.814-0.868c-0.2-0.209-0.408-0.425-0.599-0.63h-0.017l-34.896-36.765-34.885 36.765c-0.039 0.039-0.092 0.087-0.131 0.126l-0.62 0.659-0.665 0.713-0.031 0.026c-8.389 9.149-13.006 20.988-13.006 33.344 0 27.215 22.13 49.341 49.341 49.341 27.218 0 49.361-22.126 49.361-49.341 0-12.356-4.617-24.195-13.011-33.344l-0.027-0.026z" fill="#20AAE6"/>
					
					<g clip-rule="evenodd" fill-rule="evenodd">
						<path d="m196.71 202.61c0 20.085-16.274 36.365-36.364 36.365-20.086 0-36.361-16.279-36.361-36.365s16.274-36.361 36.361-36.361c20.09 0 36.364 16.274 36.364 36.361z" fill="#fff"/>
						<path d="m182.7 202.61c0 12.347-10.005 22.351-22.351 22.351-12.343 0-22.347-10.004-22.347-22.351 0-12.344 10.004-22.347 22.347-22.347 12.346-1e-3 22.351 10.003 22.351 22.347z" fill="#D8E620"/>
						<circle cx="160.35" cy="202.61" r="10.008" fill="#fff"/>
					</g>
				
			
		
	

</svg>
