<?xml version="1.0" encoding="UTF-8"?>
<!DOCTYPE svg  PUBLIC '-//W3C//DTD SVG 1.1//EN'  'http://www.w3.org/Graphics/SVG/1.1/DTD/svg11.dtd'>
<svg enable-background="new 0 0 250 125" version="1.1" viewBox="0 0 250 125" xml:space="preserve" xmlns="http://www.w3.org/2000/svg">
<g xmlns:cc="http://creativecommons.org/ns#" xmlns:dc="http://purl.org/dc/elements/1.1/" xmlns:inkscape="http://www.inkscape.org/namespaces/inkscape" xmlns:rdf="http://www.w3.org/1999/02/22-rdf-syntax-ns#" xmlns:sodipodi="http://sodipodi.sourceforge.net/DTD/sodipodi-0.dtd" xmlns:svg="http://www.w3.org/2000/svg">
	
		
	<g transform="translate(0 -927.36)">
		<g transform="matrix(.40157 0 0 .40157 -20.85 1191.8)">
			<g transform="matrix(.35496 0 0 .35496 230.21 -460.37)">
				
					<path d="m264.51 77.979-4.917 19.529c6.965-13.793 18.027-24.172 30.729-33.323-9.287 10.789-17.754 21.579-22.944 32.368 8.741-12.292 20.486-19.12 33.733-23.627-17.618 15.706-31.602 32.559-42.255 49.494l-8.467-3.687c1.501-13.521 6.609-27.369 14.121-40.754z" fill="#ABCD03"/>
					<path d="m241.9 115.14 16.116 6.686c0 4.098-0.333 16.597 2.229 20.284 26.803 34.519 22.293 103.71-5.43 105.49-42.217 0-58.317-28.679-58.317-55.038 0-24.037 28.816-40.016 46.025-54.219 4.37-3.824 3.612-12.275-0.623-23.201z" fill="#FFFCDB"/>
					<path d="m258.02 121.59 5.808 2.963c-0.546 3.823 0.273 12.292 4.096 14.476 16.936 10.516 32.914 21.988 39.197 33.46 22.398 40.426-15.706 77.846-48.62 74.295 17.891-13.248 23.081-40.425 16.389-70.062-2.731-11.609-6.966-22.125-14.478-34.007-3.254-5.832-2.118-13.066-2.392-21.125z" fill="#7D4698"/>
				
				
					<path d="m255.22 120.59 12.018 1.639c-3.551 11.745 6.966 19.939 10.38 21.852 7.648 4.234 15.023 8.604 20.896 13.93 11.063 10.106 17.345 24.31 17.345 39.333 0 14.886-6.829 29.226-18.301 38.786-10.789 9.014-25.675 12.838-40.152 12.838-9.014 0-17.072-0.409-25.812-3.278-19.939-6.692-34.826-23.763-36.055-44.25-1.093-15.979 2.458-28.134 14.887-40.835 6.418-6.692 19.393-14.34 28.271-20.486 4.371-3.005 9.014-11.473 0.136-27.451l1.776-1.366 13.157 8.812-11.108-4.578c0.956 1.366 3.551 7.512 4.098 9.287 1.229 5.053 0.683 9.971-0.41 12.155-5.599 10.107-15.159 12.838-22.124 18.574-12.292 10.106-25.676 18.164-24.174 45.888 0.683 13.657 11.336 30.319 27.314 38.104 9.014 4.371 19.394 6.146 29.91 6.692 9.423 0.41 27.451-5.19 37.284-13.384 10.516-8.74 16.389-21.988 16.389-35.508 0-13.658-5.463-26.632-15.706-35.783-5.873-5.326-15.569-11.745-21.578-15.16-6.009-3.414-13.521-12.974-11.063-22.124l-7.378-3.687z"/>
					<path d="m251.54 140.8c-1.229 6.283-2.595 17.618-8.058 21.852-2.322 1.638-4.644 3.278-7.102 4.916-9.833 6.693-19.667 12.974-24.173 29.09-0.956 3.415-0.136 7.102 0.684 10.516 2.458 9.833 9.423 20.486 14.886 26.769 0 0.273 1.093 0.956 1.093 1.229 4.507 5.327 5.873 6.829 22.944 10.652l-0.41 1.913c-10.243-2.731-18.71-5.189-24.037-11.336 0-0.136-0.956-1.093-0.956-1.093-5.736-6.556-12.702-17.481-15.296-27.724-0.956-4.098-1.775-7.238-0.683-11.473 4.643-16.661 14.75-23.217 24.993-30.182 2.322-1.502 5.053-2.869 7.238-4.644 4.233-3.14 6.554-12.701 8.877-20.485z"/>
					<path d="m255.91 166.75c0.137 7.102-0.556 10.665 1.219 15.719 1.092 3.004 4.782 7.102 5.875 11.063 1.502 5.327 3.138 11.199 3 14.75 0 4.098-0.256 11.742-2.031 19.937-1.354 6.771-4.473 12.582-9.719 15.875-5.373-1.106-11.682-2.995-15.406-6.188-7.238-6.282-13.649-16.787-14.469-25.938-0.682-7.511 6.273-18.589 15.969-24.188 8.194-4.78 10.1-10.228 11.875-18.969-2.458 7.648-4.766 14.059-12.688 18.156-11.472 6.009-17.359 16.096-16.813 25.656 0.819 12.291 5.742 20.62 15.438 27.313 4.097 2.868 11.751 5.899 16.531 6.719v-0.625c3.625-0.679 8.318-6.633 10.656-14.688 2.049-7.238 2.857-16.502 2.719-22.375-0.137-3.414-1.643-10.808-4.375-17.5-1.502-3.687-3.81-7.374-5.313-9.969-1.637-2.595-1.648-8.193-2.468-14.748z"/>
					<path d="m255.09 193.53c0.136 4.78 2.056 10.905 2.875 17.188 0.684 4.644 0.387 9.308 0.25 13.406-0.135 4.743-1.715 13.242-3.875 17.375-2.037-0.934-2.833-1.999-4.156-3.719-1.638-2.322-2.751-4.644-3.844-7.375-0.819-2.049-1.777-4.394-2.188-7.125-0.546-4.097-0.393-10.507 4.25-17.062 3.551-5.19 4.365-5.585 5.594-11.594-1.64 5.326-2.863 5.869-6.688 10.375-4.233 4.917-4.938 12.159-4.938 18.031 0 2.459 0.98 5.187 1.938 7.781 1.092 2.732 2.029 5.452 3.531 7.5 2.258 3.321 5.148 5.209 6.563 5.563 9e-3 2e-3 0.022-2e-3 0.031 0 0.03 7e-3 0.065 0.025 0.094 0.031v-0.156c2.65-2.954 4.244-5.889 4.781-8.844 0.683-3.551 0.84-7.11 1.25-11.344 0.409-3.551 0.112-8.334-0.844-13.25-1.364-6.146-3.668-12.412-4.624-16.781z"/>
					<path d="m255.5 135.07c0.137 7.101 0.683 20.35 2.595 25.539 0.546 1.775 5.599 9.56 9.149 18.983 2.459 6.556 3.005 12.565 3.415 14.34 1.639 7.785-0.41 20.896-3.142 33.324-1.365 6.692-6.009 15.023-11.335 18.301l-1.092 1.912c3.005-0.137 10.379-7.375 12.974-16.389 4.371-15.296 6.146-22.398 4.098-39.333-0.273-1.64-0.956-7.238-3.551-13.248-3.824-9.151-9.287-17.891-9.969-19.667-1.23-2.867-2.869-15.295-3.142-23.762z"/>
					<path d="m258.06 125.35c-0.405 7.298-0.514 9.986 0.852 15.312 1.502 5.873 9.151 14.34 12.292 24.037 6.009 18.574 4.507 42.884 0.136 61.867-1.638 6.691-9.424 16.389-17.208 19.529l5.736 1.366c3.141-0.137 11.198-7.648 14.34-16.252 5.052-13.521 6.009-29.636 3.96-46.571-0.137-1.639-2.869-16.252-5.463-22.398-3.688-9.15-10.244-17.345-10.926-19.119-1.229-3.005-3.927-9.244-3.719-17.771z"/>
					<rect x="253.72" y="120.22" width=".55" height="126.02"/>
				
			</g>
			<path d="m265.69-431.24h38.927c1.454 0 2.714 1.212 2.714 2.715v11.489c0 1.503-1.26 2.715-2.714 2.715h-7.999c-1.794 0-2.57 1.018-2.57 2.181v37.618c0 1.26-1.018 2.23-2.23 2.23h-13.234c-1.212 0-2.182-0.969-2.182-2.23v-37.957c0-1.164-1.067-1.842-1.891-1.842h-8.823c-1.503 0-2.715-1.212-2.715-2.715v-11.489c2e-3 -1.503 1.214-2.715 2.717-2.715z" fill="#7D4698"/>
			<path d="m365.56-416.02h3.441c1.26 0 2.278 1.018 2.278 2.23v12.313c0 1.6 0.097 2.23-1.842 2.23-3.83 0-5.575 2.036-5.575 4.266v20.796c0 0.97-0.921 1.794-2.036 1.794h-12.362c-1.115 0-2.036-0.824-2.036-1.794v-23.705c-0.013-0.417-5e-3 -1.032 0.049-1.357 0.679-8.775 7.563-15.795 16.288-16.676 0.293-0.03 1.328-0.097 1.795-0.097z" fill="#7D4698"/>
		</g>
		<g fill="#8A8A8A">
			<path d="m148.16 1037.9h-1.897v-5.466c0-0.686-0.139-1.198-0.418-1.535-0.273-0.338-0.71-0.506-1.31-0.506-0.798 0-1.383 0.236-1.752 0.707-0.37 0.472-0.555 1.262-0.555 2.371v4.429h-1.889v-8.89h1.479l0.265 1.166h0.096c0.268-0.423 0.648-0.75 1.141-0.981 0.493-0.23 1.04-0.346 1.64-0.346 2.133 0 3.199 1.085 3.199 3.255l1e-3 5.796z"/>
			<path d="m154.67 1038.1c-1.383 0-2.465-0.402-3.247-1.206-0.777-0.809-1.165-1.921-1.165-3.336 0-1.452 0.362-2.594 1.085-3.424s1.717-1.246 2.982-1.246c1.174 0 2.101 0.356 2.781 1.069 0.681 0.713 1.021 1.693 1.021 2.942v1.021h-5.924c0.027 0.863 0.26 1.527 0.699 1.993 0.439 0.461 1.058 0.691 1.857 0.691 0.525 0 1.013-0.048 1.463-0.145 0.455-0.102 0.943-0.268 1.463-0.498v1.535c-0.461 0.22-0.927 0.375-1.399 0.466s-1.01 0.137-1.616 0.138zm-0.345-7.781c-0.6 0-1.082 0.19-1.447 0.571-0.359 0.38-0.573 0.935-0.643 1.664h4.035c-0.011-0.734-0.188-1.289-0.531-1.664-0.342-0.381-0.814-0.571-1.414-0.571z"/>
			<path d="m163.59 1036.6c0.461 0 0.922-0.072 1.383-0.217v1.423c-0.209 0.091-0.48 0.166-0.812 0.225-0.327 0.064-0.667 0.096-1.021 0.096-1.79 0-2.685-0.943-2.685-2.829v-4.791h-1.214v-0.836l1.302-0.691 0.643-1.881h1.165v1.977h2.532v1.431h-2.532v4.758c0 0.456 0.113 0.793 0.338 1.013 0.231 0.215 0.531 0.322 0.901 0.322z"/>
			<path d="m174.03 1037.9-1.149-4.147c-0.139-0.439-0.391-1.46-0.756-3.062h-0.072c-0.311 1.447-0.557 2.473-0.739 3.078l-1.182 4.131h-2.09l-2.492-8.89h1.929l1.133 4.381c0.257 1.082 0.439 2.01 0.547 2.781h0.048c0.054-0.391 0.134-0.839 0.241-1.342 0.113-0.509 0.209-0.89 0.289-1.141l1.35-4.678h2.074l1.31 4.678c0.08 0.263 0.18 0.664 0.297 1.206 0.123 0.541 0.196 0.962 0.217 1.262h0.064c0.08-0.659 0.268-1.581 0.563-2.765l1.149-4.381h1.897l-2.508 8.89h-2.12v-1e-3z"/>
			<path d="m188.06 1033.5c0 1.452-0.372 2.586-1.117 3.4-0.745 0.815-1.782 1.222-3.111 1.222-0.831 0-1.565-0.188-2.202-0.563-0.638-0.375-1.128-0.914-1.471-1.616s-0.514-1.516-0.514-2.443c0-1.441 0.37-2.567 1.109-3.376s1.782-1.214 3.127-1.214c1.286 0 2.304 0.415 3.054 1.246 0.75 0.825 1.125 1.94 1.125 3.344zm-6.471 0c0 2.052 0.758 3.078 2.275 3.078 1.5 0 2.251-1.026 2.251-3.078 0-2.031-0.756-3.046-2.267-3.046-0.793 0-1.369 0.263-1.728 0.788-0.354 0.524-0.531 1.277-0.531 2.258z"/>
			<path d="m194.75 1028.9c0.38 0 0.694 0.027 0.94 0.08l-0.185 1.76c-0.268-0.064-0.547-0.096-0.836-0.096-0.756 0-1.369 0.246-1.841 0.74-0.466 0.493-0.699 1.133-0.699 1.921v4.646h-1.889v-8.89h1.479l0.249 1.567h0.096c0.295-0.53 0.678-0.951 1.149-1.262 0.479-0.31 0.991-0.466 1.537-0.466z"/>
			<path d="m199.17 1033.2 1.069-1.334 2.685-2.861h2.178l-3.577 3.818 3.802 5.072h-2.218l-2.853-3.898-1.037 0.852v3.046h-1.873v-12.507h1.873v6.101l-0.096 1.712h0.047v-1e-3z"/>
			<path d="m208.65 1037.9h-1.889v-8.89h1.889v8.89zm-2.001-11.245c0-0.338 0.091-0.597 0.273-0.78 0.188-0.182 0.453-0.273 0.796-0.273 0.332 0 0.589 0.091 0.772 0.273 0.188 0.182 0.281 0.442 0.281 0.78 0 0.322-0.094 0.576-0.281 0.764-0.182 0.182-0.439 0.273-0.772 0.273-0.343 0-0.608-0.091-0.796-0.273-0.182-0.188-0.273-0.443-0.273-0.764z"/>
			<path d="m219.18 1037.9h-1.897v-5.466c0-0.686-0.139-1.198-0.418-1.535-0.273-0.338-0.71-0.506-1.31-0.506-0.798 0-1.383 0.236-1.752 0.707-0.37 0.472-0.555 1.262-0.555 2.371v4.429h-1.889v-8.89h1.479l0.265 1.166h0.096c0.268-0.423 0.648-0.75 1.141-0.981 0.493-0.23 1.04-0.346 1.64-0.346 2.133 0 3.199 1.085 3.199 3.255l1e-3 5.796z"/>
			<path d="m229.32 1029.1v1.037l-1.519 0.281c0.139 0.188 0.255 0.418 0.346 0.691s0.137 0.563 0.137 0.868c0 0.916-0.316 1.637-0.948 2.162s-1.503 0.788-2.612 0.788c-0.284 0-0.541-0.021-0.772-0.064-0.407 0.252-0.611 0.547-0.611 0.884 0 0.204 0.094 0.356 0.281 0.458 0.193 0.102 0.544 0.153 1.053 0.153h1.551c0.981 0 1.725 0.209 2.235 0.627s0.764 1.021 0.764 1.808c0 1.007-0.415 1.784-1.246 2.331s-2.031 0.82-3.601 0.82c-1.211 0-2.135-0.214-2.773-0.643s-0.956-1.04-0.957-1.833c0-0.547 0.171-1.007 0.514-1.382 0.348-0.37 0.833-0.627 1.455-0.772-0.252-0.107-0.461-0.279-0.627-0.515-0.161-0.241-0.241-0.493-0.241-0.755 0-0.332 0.094-0.614 0.281-0.844 0.188-0.23 0.466-0.458 0.836-0.683-0.461-0.198-0.836-0.52-1.125-0.965-0.284-0.45-0.426-0.975-0.426-1.575 0-0.965 0.303-1.712 0.908-2.243 0.611-0.53 1.479-0.796 2.604-0.796 0.252 0 0.514 0.019 0.788 0.056 0.279 0.032 0.488 0.067 0.627 0.104l3.078 2e-3zm-6.984 10.272c0 0.407 0.182 0.721 0.547 0.94 0.37 0.22 0.887 0.33 1.551 0.33 1.029 0 1.795-0.147 2.299-0.442s0.756-0.686 0.756-1.174c0-0.386-0.139-0.662-0.418-0.828-0.273-0.161-0.785-0.241-1.535-0.241h-1.431c-0.541 0-0.973 0.126-1.294 0.378-0.317 0.258-0.475 0.603-0.475 1.037zm0.811-7.394c0 0.557 0.142 0.986 0.426 1.286 0.289 0.3 0.702 0.45 1.238 0.45 1.093 0 1.64-0.584 1.64-1.752 0-0.579-0.137-1.023-0.41-1.334-0.268-0.316-0.678-0.474-1.23-0.474-0.547 0-0.962 0.155-1.246 0.466-0.278 0.31-0.418 0.763-0.418 1.358z"/>
		</g>
		<g fill="#8A8A8A">
			<path d="m49.026 1037.6-1.149-4.147c-0.139-0.439-0.391-1.46-0.756-3.063h-0.072c-0.311 1.447-0.557 2.473-0.739 3.078l-1.182 4.131h-2.09l-2.492-8.89h1.929l1.133 4.381c0.257 1.082 0.439 2.01 0.547 2.781h0.048c0.054-0.391 0.134-0.839 0.241-1.342 0.113-0.509 0.209-0.89 0.289-1.141l1.35-4.678h2.074l1.31 4.678c0.08 0.263 0.18 0.664 0.297 1.206 0.123 0.541 0.196 0.962 0.217 1.262h0.064c0.08-0.659 0.268-1.581 0.563-2.765l1.149-4.381h1.897l-2.508 8.89h-2.12z"/>
			<path d="m57.064 1037.6h-1.889v-8.89h1.889v8.89zm-2.001-11.245c0-0.338 0.091-0.597 0.273-0.78 0.188-0.182 0.453-0.273 0.796-0.273 0.332 0 0.589 0.091 0.772 0.273 0.188 0.182 0.281 0.442 0.281 0.78 0 0.322-0.094 0.576-0.281 0.764-0.182 0.182-0.439 0.273-0.772 0.273-0.343 0-0.608-0.091-0.796-0.273-0.182-0.188-0.273-0.442-0.273-0.764z"/>
			<path d="m63.085 1036.3c0.461 0 0.922-0.072 1.383-0.217v1.423c-0.209 0.091-0.48 0.166-0.812 0.225-0.327 0.065-0.667 0.097-1.021 0.097-1.79 0-2.685-0.943-2.685-2.829v-4.791h-1.214v-0.836l1.302-0.691 0.643-1.881h1.165v1.977h2.532v1.431h-2.532v4.759c0 0.455 0.113 0.793 0.338 1.013 0.231 0.213 0.531 0.32 0.901 0.32z"/>
			<path d="m74.056 1037.6h-1.897v-5.466c0-0.686-0.139-1.198-0.418-1.535-0.273-0.338-0.71-0.506-1.31-0.506-0.793 0-1.377 0.239-1.752 0.715-0.37 0.472-0.555 1.265-0.555 2.379v4.413h-1.889v-12.507h1.889v3.175c0 0.509-0.032 1.053-0.096 1.632h0.121c0.257-0.429 0.614-0.761 1.069-0.997 0.461-0.236 0.997-0.354 1.608-0.354 2.154 0 3.231 1.085 3.231 3.255v5.796z"/>
		</g>
	</g>
</g>

	<g fill="#36393D">
		<path d="m26.055 31.359h11.713l6.679 34.679 5.216-34.679h11.895l-9.791 44.654h-14.823l-5.033-27.543-5.033 27.543h-14.823l-9.791-44.654h11.895l5.216 34.679 6.68-34.679z"/>
		<path d="m202.88 25.778c-1.312 1.281-2.882 1.921-4.713 1.921-1.83 0-3.416-0.655-4.757-1.967-1.343-1.311-2.013-2.896-2.013-4.758 0-1.86 0.67-3.446 2.013-4.759 1.341-1.311 2.928-1.967 4.757-1.967 1.83 0 3.401 0.657 4.713 1.967 1.311 1.313 1.967 2.914 1.967 4.804 0 1.892-0.656 3.478-1.967 4.759zm-10.843 50.235v-44.654h12.262v44.654h-12.262z"/>
		<path d="m228.64 61.372-6.771 14.641h-12.72l12.444-23.791-11.621-20.863h13.36l5.306 13.359 5.307-13.359h13.36l-11.621 20.863 12.444 23.791h-12.719l-6.769-14.641z"/>
		<path d="M171.034,30h-1.921c-3.844,0-7.612,1.512-8.612,3.647V31h-11v2.66c4,5.04,5.734,11.209,5.734,17.878    c0,6.669-1.734,12.838-5.734,17.878V76h11V41.059c0-0.488,0.722-1.53,1.058-1.896c0.335-0.366,1.301-1.163,1.79-1.163h5.032    c0.488,0,0.09,0.797,0.426,1.163c0.335,0.366-0.306,1.408-0.306,1.896V76h13V42.522C181.5,34.471,178.598,30,171.034,30z"/>
		<path d="m93.461 51.539c0-5.946 1.731-11.717 4.651-16.422-1.751-3.259-4.986-5.117-9.798-5.117h-1.921c-3.173 0-5.893 1.176-6.893 2.64v-16.64h-14v60h14v-35.124c0-1.098 0.09-2.876 1.128-2.876h5.033c0.488 0 1.449 0.797 1.786 1.163 0.334 0.366 1.053 1.408 1.053 1.896v34.941h11v-6.042c-5-5.136-6.039-11.512-6.039-18.419z"/>
	</g>
	
		
			
				
					
						<path d="m140.6 31.786v-10.113c0-8.674-6.983-15.463-15.655-15.463h-1.31c-8.672 0-16.027 6.789-16.027 15.463v10.122c-5.549 4.692-9.076 11.7-9.076 19.536 0 14.126 11.451 25.577 25.577 25.577s25.577-11.451 25.577-25.577c-1e-3 -7.841-3.532-14.853-9.086-19.545zm-26.674-10.384c0-5.339 4.267-9.576 9.606-9.576h0.438c5.34 0 9.61 4.237 9.61 9.576v6.171c-2.93-1.169-6.124-1.819-9.472-1.819-3.62 0-7.062 0.756-10.183 2.113v-6.465z" fill="#C3C3D1"/>
					
				
				
					
						<path d="m134.14 44.009-0.228-0.243c-0.056-0.059-0.114-0.119-0.168-0.177h-5e-3l-9.787-10.311-9.783 10.311c-0.011 0.011-0.026 0.024-0.037 0.035l-0.174 0.185-0.186 0.2-9e-3 7e-3c-2.353 2.566-3.648 5.886-3.648 9.351 0 7.632 6.206 13.838 13.838 13.838 7.633 0 13.843-6.205 13.843-13.838 0-3.465-1.295-6.785-3.649-9.351l-7e-3 -7e-3z" fill="#20AAE6"/>
					
					<g clip-rule="evenodd" fill-rule="evenodd">
						<circle cx="123.96" cy="53.368" r="10.198" fill="#fff"/>
						<circle cx="123.96" cy="53.368" r="6.268" fill="#D8E620"/>
						<circle cx="123.96" cy="53.368" r="2.807" fill="#fff"/>
					</g>
				
			
		
	

</svg>
