<?xml version="1.0" encoding="UTF-8"?>
<!DOCTYPE svg  PUBLIC '-//W3C//DTD SVG 1.1//EN'  'http://www.w3.org/Graphics/SVG/1.1/DTD/svg11.dtd'>
<svg enable-background="new 0 0 600 321" version="1.1" viewBox="0 0 600 321" xml:space="preserve" xmlns="http://www.w3.org/2000/svg">

	
		
			
				<path d="m299.89 43.5h-3.198c-21.175 0-38.694 16.63-38.694 37.809v51.125c0 21.178 17.519 38.066 38.694 38.066h3.198c21.175 0 38.108-16.888 38.108-38.066v-51.125c0-21.179-16.933-37.809-38.108-37.809zm21.108 70.199c0 13.035-10.451 23.801-23.489 23.801h-1.069c-13.038 0-23.442-10.766-23.442-23.801v-33.052c0-13.037 10.404-23.147 23.442-23.147h1.069c13.038 0 23.489 10.109 23.489 23.147v33.052z" fill="#C3C3D1"/>
			
		
		<path d="m58.442 104.96h28.599l16.309 84.676 12.736-84.676h29.045l-23.906 109.03h-36.195l-12.288-67.251-12.289 67.251h-36.195l-23.906-109.03h29.045l12.736 84.676 16.309-84.676z" fill="#36393D"/>
		<path d="m490.21 91.331c-3.204 3.127-7.038 4.691-11.507 4.691-4.467 0-8.342-1.598-11.616-4.804-3.279-3.201-4.916-7.072-4.916-11.617 0-4.543 1.637-8.414 4.916-11.619 3.274-3.2 7.149-4.804 11.616-4.804 4.469 0 8.304 1.603 11.507 4.804 3.2 3.205 4.802 7.115 4.802 11.731 1e-3 4.618-1.601 8.49-4.802 11.618zm-26.476 122.66v-109.03h29.939v109.03h-29.939z" fill="#36393D"/>
		<path d="m553.1 178.24-16.532 35.749h-31.057l30.384-58.091-28.374-50.941h32.622l12.957 32.62 12.958-32.62h32.622l-28.376 50.941 30.384 58.091h-31.057l-16.531-35.749z" fill="#36393D"/>
		<path d="m412.44 103.5h-4.692c-9.385 0-15.748 1.833-20.748 7.046v-4.046h-28v4.078c8 12.306 14.001 27.368 14.001 43.653 0 16.284-6.001 31.346-14.001 43.652v15.617h29v-84.857c0-1.191 1.123-2.573 1.943-3.466 0.817-0.894 2.535-1.677 3.731-1.677h12.286c1.192 0 1.593 0.783 2.414 1.677 0.817 0.894 0.627 2.275 0.627 3.466v84.857h32v-81.283c-1e-3 -19.66-10.092-28.717-28.561-28.717z" fill="#36393D"/>
		<path d="m223.64 154.23c0-14.518 3.92-27.679 11.051-39.168-4.277-7.956-12.48-11.563-24.229-11.563h-4.692c-7.746 0-15.771 1.013-18.771 4.588v-38.589h-31v144h31v-85.304c0-2.681 2.161-4.696 4.696-4.696h12.288c1.191 0 2.581 0.783 3.403 1.677 0.817 0.894 1.613 2.275 1.613 3.466v84.857h30v-14.293c-13.001-12.541-15.359-28.109-15.359-44.975z" fill="#36393D"/>
	
	
		<path d="m75.809 243.04c0 2.101-0.713 3.711-2.14 4.83-1.426 1.12-3.447 1.679-6.062 1.679h-3.359v8.975h-1.516v-21.724h5.32c5.171 0 7.757 2.081 7.757 6.24zm-11.561 5.202h2.987c2.447 0 4.215-0.403 5.305-1.212 1.09-0.807 1.634-2.117 1.634-3.93 0-1.674-0.516-2.916-1.545-3.722-1.031-0.807-2.625-1.21-4.785-1.21h-3.596v10.074z"/>
		<path d="m86.615 249.06v9.465h-1.516v-21.724h5.171c2.695 0 4.686 0.497 5.974 1.493s1.932 2.494 1.932 4.494c0 1.456-0.384 2.685-1.152 3.686-0.767 1.001-1.934 1.719-3.499 2.154l5.899 9.897h-1.814l-5.601-9.465h-5.394zm0-1.307h4.146c1.833 0 3.255-0.408 4.265-1.227 1.01-0.817 1.516-2.024 1.516-3.617 0-1.655-0.496-2.859-1.485-3.612-0.991-0.753-2.606-1.128-4.845-1.128h-3.596v9.584z"/>
		<path d="m107.75 258.52v-21.724h1.516v21.724h-1.516z"/>
		<path d="m132.82 236.8h1.65l-8.128 21.724h-1.337l-8.099-21.724h1.62l5.468 14.785c0.833 2.23 1.392 3.903 1.68 5.023 0.197-0.743 0.589-1.898 1.173-3.463l5.973-16.345z"/>
		<path d="m152.57 250.86h-8.827l-3.031 7.668h-1.679l8.737-21.815h0.966l8.559 21.815h-1.708l-3.017-7.668zm-8.277-1.368h7.772l-2.958-7.83c-0.248-0.614-0.545-1.466-0.891-2.556-0.268 0.951-0.56 1.813-0.877 2.586l-3.046 7.8z"/>
		<path d="m174.21 237.85c-2.725 0-4.869 0.872-6.434 2.616-1.566 1.743-2.348 4.131-2.348 7.162 0 3.1 0.738 5.507 2.214 7.221 1.475 1.714 3.586 2.571 6.33 2.571 1.823 0 3.496-0.233 5.022-0.698v1.337c-1.436 0.505-3.229 0.758-5.379 0.758-3.051 0-5.454-0.986-7.207-2.958s-2.63-4.725-2.63-8.262c0-2.209 0.419-4.156 1.256-5.84s2.04-2.985 3.61-3.9c1.57-0.917 3.395-1.376 5.476-1.376 2.12 0 4.017 0.397 5.692 1.19l-0.609 1.366c-1.585-0.791-3.249-1.187-4.993-1.187z"/>
		<path d="m193.4 248.69 6.36-11.887h1.634l-7.237 13.328v8.396h-1.561v-8.277l-7.266-13.447h1.738l6.332 11.887z"/>
		<path d="m220.25 253.01c0-1.366 0.364-2.531 1.092-3.492s2.088-1.977 4.079-3.046l-1.115-1.218c-0.654-0.703-1.139-1.391-1.456-2.065-0.317-0.673-0.475-1.376-0.475-2.109 0-1.418 0.473-2.542 1.419-3.374s2.216-1.247 3.811-1.247c1.536 0 2.751 0.4 3.648 1.204 0.896 0.802 1.345 1.911 1.345 3.327 0 1.041-0.347 1.994-1.04 2.86-0.694 0.867-1.947 1.831-3.759 2.891l6.716 6.791c0.604-0.713 1.12-1.491 1.546-2.333s0.797-1.838 1.114-2.986h1.427c-0.624 2.437-1.659 4.546-3.106 6.33l3.953 3.982h-2.006l-2.868-2.928c-0.911 0.892-1.723 1.543-2.437 1.955-0.713 0.41-1.493 0.725-2.34 0.942s-1.811 0.328-2.891 0.328c-2.07 0-3.697-0.511-4.881-1.532-1.184-1.02-1.776-2.447-1.776-4.28zm6.761 4.474c1.268 0 2.43-0.216 3.484-0.648 1.055-0.43 2.093-1.157 3.113-2.176l-7.177-7.207c-1.348 0.713-2.321 1.321-2.92 1.821s-1.035 1.043-1.307 1.627c-0.273 0.584-0.409 1.267-0.409 2.05 0 1.416 0.461 2.526 1.382 3.327 0.922 0.804 2.2 1.206 3.834 1.206zm-3.046-16.435c0 0.782 0.197 1.505 0.594 2.169 0.396 0.665 1.149 1.525 2.259 2.586 1.575-0.842 2.67-1.63 3.284-2.364 0.614-0.733 0.921-1.57 0.921-2.511 0-0.931-0.307-1.687-0.921-2.266s-1.447-0.869-2.497-0.869c-1.13 0-2.019 0.286-2.667 0.86-0.649 0.577-0.973 1.374-0.973 2.395z"/>
		<path d="m270.69 250.86h-8.827l-3.031 7.668h-1.679l8.737-21.815h0.966l8.559 21.815h-1.708l-3.017-7.668zm-8.277-1.368h7.772l-2.958-7.83c-0.248-0.614-0.545-1.466-0.891-2.556-0.268 0.951-0.56 1.813-0.877 2.586l-3.046 7.8z"/>
		<path d="m298.85 258.52h-1.53l-12.869-19.287h-0.119c0.119 2.298 0.178 4.032 0.178 5.201v14.087h-1.456v-21.724h1.516l12.854 19.257h0.089c-0.089-1.783-0.133-3.476-0.133-5.082v-14.176h1.47v21.724z"/>
		<path d="m327.83 247.63c0 3.446-0.86 6.173-2.584 8.18-1.724 2.005-4.104 3.01-7.134 3.01-3.023 0-5.393-1.004-7.117-3.01-1.724-2.007-2.588-4.744-2.588-8.21 0-3.458 0.87-6.18 2.608-8.165 1.741-1.987 4.114-2.979 7.127-2.979 3.029 0 5.403 0.998 7.117 2.993 1.714 1.996 2.571 4.723 2.571 8.181zm-17.772 0c0 3.11 0.693 5.515 2.082 7.214 1.386 1.699 3.378 2.548 5.972 2.548 2.614 0 4.613-0.842 5.995-2.526 1.383-1.684 2.072-4.096 2.072-7.236 0-3.132-0.69-5.53-2.072-7.201-1.382-1.669-3.371-2.504-5.965-2.504-2.588 0-4.58 0.843-5.982 2.527-1.403 1.685-2.102 4.076-2.102 7.178z"/>
		<path d="m353.18 258.52h-1.53l-12.868-19.287h-0.12c0.12 2.298 0.181 4.032 0.181 5.201v14.087h-1.456v-21.724h1.513l12.855 19.257h0.09c-0.09-1.783-0.134-3.476-0.134-5.082v-14.176h1.47v21.724z"/>
		<path d="m368.89 248.69 6.361-11.887h1.634l-7.238 13.328v8.396h-1.56v-8.277l-7.264-13.447h1.737l6.33 11.887z"/>
		<path d="m394.08 258.52-8.098-20.06h-0.12c0.08 1.228 0.12 2.487 0.12 3.774v16.286h-1.456v-21.724h2.347l7.696 19.11h0.09l7.696-19.11h2.29v21.724h-1.53v-16.465c0-1.148 0.057-2.337 0.177-3.565h-0.12l-8.128 20.03h-0.964z"/>
		<path d="m415.35 258.52v-21.724h1.513v21.724h-1.513z"/>
		<path d="m433.24 258.52h-1.53v-20.298h-7.057v-1.426h15.647v1.426h-7.06v20.298z"/>
		<path d="m453.09 248.69 6.361-11.887h1.634l-7.238 13.328v8.396h-1.56v-8.277l-7.264-13.447h1.737l6.33 11.887z"/>
		<path d="m499.45 247.63c0 3.446-0.86 6.173-2.584 8.18-1.724 2.005-4.104 3.01-7.134 3.01-3.023 0-5.393-1.004-7.117-3.01-1.724-2.007-2.588-4.744-2.588-8.21 0-3.458 0.87-6.18 2.608-8.165 1.741-1.987 4.114-2.979 7.127-2.979 3.03 0 5.403 0.998 7.117 2.993 1.714 1.996 2.571 4.723 2.571 8.181zm-17.773 0c0 3.11 0.693 5.515 2.082 7.214 1.386 1.699 3.378 2.548 5.972 2.548 2.614 0 4.613-0.842 5.996-2.526 1.382-1.684 2.072-4.096 2.072-7.236 0-3.132-0.69-5.53-2.072-7.201-1.383-1.669-3.371-2.504-5.965-2.504-2.588 0-4.58 0.843-5.982 2.527-1.403 1.685-2.103 4.076-2.103 7.178z"/>
		<path d="m521 252.92c0 1.813-0.666 3.249-1.998 4.31-1.332 1.06-3.103 1.59-5.313 1.59-2.655 0-4.69-0.293-6.106-0.877v-1.517c1.567 0.664 3.562 0.996 5.989 0.996 1.781 0 3.197-0.408 4.242-1.225 1.044-0.818 1.567-1.89 1.567-3.217 0-0.824-0.171-1.503-0.519-2.044s-0.911-1.033-1.694-1.478c-0.783-0.447-1.932-0.927-3.448-1.443-2.219-0.762-3.753-1.587-4.6-2.474-0.847-0.885-1.269-2.067-1.269-3.543 0-1.625 0.636-2.949 1.908-3.975 1.272-1.024 2.913-1.538 4.911-1.538 2.042 0 3.957 0.387 5.751 1.16l-0.549 1.307c-1.804-0.753-3.528-1.13-5.172-1.13-1.603 0-2.882 0.372-3.833 1.115s-1.426 1.754-1.426 3.031c0 0.804 0.144 1.461 0.438 1.977 0.291 0.516 0.77 0.977 1.433 1.389s1.804 0.904 3.418 1.478c1.694 0.586 2.966 1.152 3.82 1.702 0.85 0.549 1.473 1.173 1.865 1.871 0.391 0.701 0.585 1.544 0.585 2.535z"/>
	


	
		
			
				<circle cx="297.85" cy="153.72" r="62.451" fill="#C3C3D1"/>
			
			
				
					<path d="m322.37 135.85-0.557-0.594c-0.137-0.143-0.28-0.291-0.41-0.431h-0.012l-23.896-25.176-23.888 25.176c-0.027 0.027-0.063 0.059-0.089 0.086l-0.424 0.451-0.455 0.488-0.021 0.017c-5.745 6.265-8.906 14.372-8.906 22.833 0 18.636 15.154 33.787 33.787 33.787 18.638 0 33.801-15.151 33.801-33.787 0-8.461-3.162-16.568-8.91-22.833l-0.02-0.017z" fill="#20AAE6"/>
				
				<g clip-rule="evenodd" fill-rule="evenodd">
					<path d="m322.4 158.7c0 13.754-11.144 24.901-24.901 24.901-13.754 0-24.899-11.147-24.899-24.901s11.144-24.898 24.899-24.898c13.757-1e-3 24.901 11.143 24.901 24.898z" fill="#fff"/>
					<circle cx="297.5" cy="158.7" r="15.304" fill="#D8E620"/>
					<circle cx="297.5" cy="158.7" r="6.853" fill="#fff"/>
				</g>
			
		
	

</svg>
