<?xml version="1.0" encoding="UTF-8"?>
<!DOCTYPE svg  PUBLIC '-//W3C//DTD SVG 1.1//EN'  'http://www.w3.org/Graphics/SVG/1.1/DTD/svg11.dtd'>
<svg enable-background="new 0 0 440 220" version="1.1" viewBox="0 0 440 220" xml:space="preserve" xmlns="http://www.w3.org/2000/svg">

	
		
			
				<path d="m225.69 56h-1.59c-10.529 0-19.097 8.723-19.097 19.254v25.421c0 10.53 8.568 19.325 19.097 19.325h1.59c10.529 0 19.313-8.794 19.313-19.325v-25.421c0-10.531-8.784-19.254-19.313-19.254zm10.313 35.36c0 6.481-5.014 11.64-11.497 11.64h-0.532c-6.483 0-11.971-5.159-11.971-11.64v-16.435c0-6.483 5.488-11.925 11.972-11.925h0.532c6.482 0 11.496 5.442 11.496 11.925v16.435z" fill="#C3C3D1"/>
			
		
		<path d="m105.63 87.014h14.221l8.11 42.104 6.333-42.104h14.442l-11.887 54.215h-17.998l-6.11-33.44-6.111 33.44h-17.998l-11.887-54.215h14.442l6.333 42.104 8.11-42.104z" fill="#36393D"/>
		<path d="m320.32 80.237c-1.593 1.555-3.5 2.332-5.722 2.332-2.221 0-4.148-0.795-5.776-2.389-1.63-1.592-2.444-3.516-2.444-5.776 0-2.259 0.814-4.184 2.444-5.778 1.628-1.591 3.555-2.389 5.776-2.389 2.222 0 4.129 0.797 5.722 2.389 1.591 1.594 2.388 3.538 2.388 5.833 0 2.297-0.796 4.223-2.388 5.778zm-13.164 60.992v-54.215h14.887v54.215h-14.887z" fill="#36393D"/>
		<path d="m351.59 123.45-8.22 17.776h-15.443l15.108-28.885-14.109-25.33h16.221l6.443 16.22 6.443-16.22h16.221l-14.11 25.33 15.108 28.885h-15.443l-8.219-17.776z" fill="#36393D"/>
		<path d="M281.65,87h-2.333C274.651,87,272,87.2,269,89.791V88h-14v1.808c4,6.119,6.962,13.609,6.962,21.706    c0,8.097-2.962,15.586-6.962,21.705V141h15V98.79c0-0.592,0.307-1.396,0.715-1.84c0.406-0.444,1.01-0.95,1.604-0.95h6.109    c0.593,0,0.822,0.506,1.231,0.95c0.406,0.444,0.342,1.248,0.342,1.84V141h16v-40.433C296,90.791,290.834,87,281.65,87z" fill="#36393D"/>
		<path d="m188.07 111.51c0-7.219 1.802-13.407 5.347-19.12-2.126-3.956-6.353-5.394-12.195-5.394h-2.333c-3.852 0-6.887-0.208-8.887 1.569v-19.569h-16v72h16v-42.432c0-1.333 0.628-2.568 1.888-2.568h6.11c0.592 0 1.537 0.506 1.946 0.95 0.406 0.444 1.056 1.248 1.056 1.84v42.21h15v-7.122c-7-6.237-7.932-13.978-7.932-22.364z" fill="#36393D"/>
	
	
		<path d="m114.26 155.67c0 1.045-0.355 1.845-1.064 2.402s-1.714 0.835-3.015 0.835h-1.67v4.463h-0.754v-10.802h2.645c2.573 0 3.858 1.034 3.858 3.102zm-5.748 2.587h1.485c1.217 0 2.096-0.201 2.638-0.603 0.542-0.401 0.813-1.053 0.813-1.954 0-0.832-0.256-1.45-0.768-1.851-0.513-0.401-1.305-0.602-2.379-0.602h-1.788v5.01z"/>
		<path d="m119.64 158.66v4.707h-0.754v-10.802h2.571c1.34 0 2.33 0.247 2.97 0.742s0.96 1.24 0.96 2.235c0 0.724-0.191 1.335-0.573 1.833s-0.962 0.855-1.74 1.071l2.933 4.921h-0.902l-2.785-4.707h-2.68zm0-0.65h2.062c0.911 0 1.618-0.203 2.121-0.61 0.502-0.406 0.754-1.006 0.754-1.799 0-0.823-0.246-1.421-0.739-1.796s-1.296-0.561-2.409-0.561h-1.788v4.766z"/>
		<path d="m130.14 163.37v-10.802h0.754v10.802h-0.754z"/>
		<path d="m142.61 152.57h0.82l-4.042 10.802h-0.665l-4.027-10.802h0.805l2.719 7.352c0.414 1.109 0.692 1.941 0.835 2.498 0.098-0.37 0.293-0.944 0.583-1.722l2.972-8.128z"/>
		<path d="m152.43 159.56h-4.389l-1.507 3.813h-0.835l4.344-10.847h0.48l4.256 10.847h-0.849l-1.5-3.813zm-4.116-0.68h3.865l-1.471-3.893c-0.123-0.305-0.271-0.729-0.443-1.271-0.133 0.473-0.278 0.901-0.436 1.286l-1.515 3.878z"/>
		<path d="m163.19 153.09c-1.355 0-2.421 0.434-3.199 1.301-0.779 0.866-1.168 2.054-1.168 3.561 0 1.541 0.367 2.738 1.101 3.59s1.783 1.278 3.148 1.278c0.906 0 1.739-0.116 2.497-0.347v0.665c-0.714 0.251-1.606 0.377-2.674 0.377-1.517 0-2.712-0.49-3.584-1.471-0.872-0.98-1.308-2.349-1.308-4.108 0-1.099 0.208-2.067 0.625-2.904 0.416-0.837 1.015-1.484 1.795-1.939 0.781-0.456 1.688-0.684 2.723-0.684 1.054 0 1.997 0.197 2.83 0.592l-0.303 0.679c-0.788-0.393-1.616-0.59-2.483-0.59z"/>
		<path d="m172.73 158.48 3.163-5.911h0.813l-3.598 6.627v4.175h-0.776v-4.116l-3.613-6.687h0.864l3.147 5.912z"/>
		<path d="m186.09 160.63c0-0.679 0.181-1.258 0.543-1.736s1.038-0.983 2.028-1.515l-0.554-0.606c-0.325-0.35-0.566-0.692-0.724-1.027s-0.236-0.684-0.236-1.049c0-0.705 0.235-1.264 0.706-1.678 0.47-0.414 1.102-0.62 1.895-0.62 0.764 0 1.368 0.199 1.814 0.598s0.669 0.95 0.669 1.655c0 0.518-0.173 0.991-0.517 1.422-0.345 0.431-0.968 0.911-1.869 1.437l3.34 3.377c0.3-0.355 0.557-0.742 0.769-1.16 0.212-0.419 0.396-0.914 0.554-1.485h0.709c-0.31 1.212-0.825 2.26-1.544 3.148l1.965 1.98h-0.997l-1.426-1.456c-0.453 0.444-0.857 0.767-1.212 0.972-0.355 0.204-0.742 0.36-1.164 0.469-0.421 0.108-0.9 0.163-1.437 0.163-1.03 0-1.838-0.254-2.427-0.762-0.591-0.505-0.885-1.215-0.885-2.127zm3.362 2.225c0.63 0 1.208-0.107 1.732-0.322 0.525-0.214 1.041-0.575 1.548-1.082l-3.569-3.584c-0.67 0.355-1.154 0.657-1.452 0.906s-0.515 0.519-0.65 0.809c-0.136 0.29-0.203 0.63-0.203 1.02 0 0.704 0.229 1.256 0.687 1.655 0.459 0.398 1.094 0.598 1.907 0.598zm-1.515-8.172c0 0.389 0.098 0.748 0.295 1.079 0.197 0.33 0.571 0.758 1.123 1.286 0.783-0.419 1.328-0.811 1.633-1.175 0.305-0.365 0.458-0.781 0.458-1.248 0-0.463-0.153-0.839-0.458-1.127s-0.72-0.432-1.241-0.432c-0.562 0-1.004 0.142-1.326 0.428-0.323 0.285-0.484 0.681-0.484 1.189z"/>
		<path d="m211.17 159.56h-4.389l-1.507 3.813h-0.835l4.344-10.847h0.48l4.256 10.847h-0.849l-1.5-3.813zm-4.115-0.68h3.865l-1.471-3.893c-0.123-0.305-0.271-0.729-0.443-1.271-0.133 0.473-0.278 0.901-0.436 1.286l-1.515 3.878z"/>
		<path d="m225.17 163.37h-0.761l-6.399-9.59h-0.059c0.059 1.143 0.089 2.005 0.089 2.586v7.004h-0.724v-10.802h0.754l6.391 9.575h0.044c-0.044-0.886-0.066-1.729-0.066-2.527v-7.049h0.731v10.803z"/>
		<path d="m239.58 157.96c0 1.714-0.428 3.069-1.285 4.067-0.857 0.997-2.041 1.496-3.547 1.496-1.503 0-2.682-0.499-3.539-1.496-0.857-0.998-1.287-2.359-1.287-4.082 0-1.719 0.433-3.073 1.297-4.06 0.866-0.988 2.046-1.481 3.544-1.481 1.506 0 2.687 0.496 3.539 1.488 0.852 0.993 1.278 2.349 1.278 4.068zm-8.837 0c0 1.546 0.345 2.742 1.035 3.587 0.689 0.845 1.68 1.267 2.97 1.267 1.3 0 2.294-0.419 2.981-1.256 0.688-0.837 1.03-2.037 1.03-3.598 0-1.557-0.343-2.75-1.03-3.58s-1.676-1.245-2.966-1.245c-1.287 0-2.277 0.419-2.975 1.257-0.697 0.837-1.045 2.026-1.045 3.568z"/>
		<path d="m252.19 163.37h-0.761l-6.399-9.59h-0.06c0.06 1.143 0.09 2.005 0.09 2.586v7.004h-0.724v-10.802h0.752l6.392 9.575h0.045c-0.045-0.886-0.067-1.729-0.067-2.527v-7.049h0.731v10.803z"/>
		<path d="m260 158.48 3.163-5.911h0.812l-3.599 6.627v4.175h-0.776v-4.116l-3.612-6.687h0.864l3.148 5.912z"/>
		<path d="m272.52 163.37-4.027-9.975h-0.06c0.04 0.611 0.06 1.237 0.06 1.877v8.098h-0.724v-10.802h1.167l3.827 9.502h0.045l3.827-9.502h1.139v10.802h-0.761v-8.187c0-0.571 0.028-1.162 0.088-1.773h-0.06l-4.042 9.96h-0.479z"/>
		<path d="m283.1 163.37v-10.802h0.752v10.802h-0.752z"/>
		<path d="m292 163.37h-0.761v-10.093h-3.509v-0.709h7.78v0.709h-3.51v10.093z"/>
		<path d="m301.86 158.48 3.163-5.911h0.812l-3.599 6.627v4.175h-0.776v-4.116l-3.612-6.687h0.864l3.148 5.912z"/>
		<path d="m324.92 157.96c0 1.714-0.428 3.069-1.285 4.067-0.857 0.997-2.041 1.496-3.547 1.496-1.503 0-2.682-0.499-3.539-1.496-0.857-0.998-1.287-2.359-1.287-4.082 0-1.719 0.433-3.073 1.297-4.06 0.866-0.988 2.046-1.481 3.544-1.481 1.506 0 2.687 0.496 3.539 1.488 0.852 0.993 1.278 2.349 1.278 4.068zm-8.837 0c0 1.546 0.345 2.742 1.035 3.587 0.689 0.845 1.68 1.267 2.97 1.267 1.3 0 2.294-0.419 2.981-1.256s1.03-2.037 1.03-3.598c0-1.557-0.343-2.75-1.03-3.58-0.688-0.83-1.676-1.245-2.966-1.245-1.287 0-2.277 0.419-2.975 1.257-0.697 0.837-1.045 2.026-1.045 3.568z"/>
		<path d="m335.63 160.59c0 0.901-0.331 1.615-0.994 2.143-0.662 0.527-1.543 0.791-2.642 0.791-1.32 0-2.332-0.146-3.036-0.436v-0.754c0.779 0.33 1.771 0.495 2.978 0.495 0.886 0 1.59-0.203 2.109-0.609 0.519-0.407 0.779-0.94 0.779-1.6 0-0.41-0.085-0.747-0.258-1.016s-0.453-0.514-0.842-0.735c-0.389-0.222-0.96-0.461-1.714-0.717-1.104-0.379-1.866-0.789-2.287-1.23-0.421-0.44-0.631-1.028-0.631-1.762 0-0.808 0.316-1.466 0.949-1.977 0.633-0.509 1.448-0.765 2.442-0.765 1.015 0 1.968 0.192 2.86 0.577l-0.273 0.65c-0.897-0.375-1.754-0.562-2.572-0.562-0.797 0-1.433 0.185-1.906 0.554s-0.709 0.872-0.709 1.507c0 0.4 0.072 0.727 0.218 0.983 0.145 0.256 0.383 0.486 0.712 0.691 0.33 0.205 0.897 0.449 1.699 0.735 0.842 0.291 1.475 0.573 1.899 0.846 0.423 0.273 0.732 0.583 0.927 0.93 0.195 0.349 0.292 0.769 0.292 1.261z"/>
	


	
		
			
				<circle cx="226" cy="110" r="31.053" fill="#C3C3D1"/>
			
			
				
					<path d="m238.19 101.11-0.277-0.295c-0.068-0.071-0.139-0.145-0.204-0.214h-6e-3l-11.882-12.518-11.878 12.517c-0.013 0.013-0.031 0.03-0.044 0.043l-0.211 0.224-0.226 0.243-0.01 9e-3c-2.856 3.115-4.429 7.146-4.429 11.354 0 9.267 7.535 16.8 16.8 16.8 9.267 0 16.807-7.534 16.807-16.8 0-4.207-1.572-8.238-4.43-11.354l-0.01-9e-3z" fill="#20AAE6"/>
				
				<g clip-rule="evenodd" fill-rule="evenodd">
					<circle cx="225.83" cy="112.47" r="12.381" fill="#fff"/>
					<circle cx="225.83" cy="112.47" r="7.61" fill="#D8E620"/>
					<circle cx="225.83" cy="112.47" r="3.408" fill="#fff"/>
				</g>
			
		
	

</svg>
